Coordinates
version=1
nRows=6
nColumns=63
inDegrees=yes

Units are S.I. units (second, meters, Newtons, ...)
If the header above contains a line with 'inDegrees', this indicates whether rotational values are in degrees (yes) or radians (no).

endheader
time	pelvis_tilt	pelvis_list	pelvis_rotation	pelvis_tx	pelvis_ty	pelvis_tz	hip_flexion_r	hip_adduction_r	hip_rotation_r	knee_angle_r	knee_angle_r_beta	ankle_angle_r	subtalar_angle_r	mtp_angle_r	hip_flexion_l	hip_adduction_l	hip_rotation_l	knee_angle_l	knee_angle_l_beta	ankle_angle_l	subtalar_angle_l	mtp_angle_l	L5_S1_Flex_Ext	L5_S1_Lat_Bending	L5_S1_axial_rotation	L4_L5_Flex_Ext	L4_L5_Lat_Bending	L4_L5_axial_rotation	L3_L4_Flex_Ext	L3_L4_Lat_Bending	L3_L4_axial_rotation	L2_L3_Flex_Ext	L2_L3_Lat_Bending	L2_L3_axial_rotation	L1_L2_Flex_Ext	L1_L2_Lat_Bending	L1_L2_axial_rotation	L1_T12_Flex_Ext	L1_T12_Lat_Bending	L1_T12_axial_rotation	Abs_r3	Abs_r2	Abs_r1	Abs_t1	Abs_t2	neck_flexion	neck_bending	neck_rotation	arm_flex_r	arm_add_r	arm_rot_r	elbow_flex_r	pro_sup_r	wrist_flex_r	wrist_dev_r	arm_flex_l	arm_add_l	arm_rot_l	elbow_flex_l	pro_sup_l	wrist_flex_l	wrist_dev_l
1.913043	-2.229577	-3.003641	106.679025	0.091764	1.007853	0.481588	-3.992756	0.154314	1.729233	0.668287	0.011664	22.468154	-9.128782	0.000000	0.071278	2.396715	3.089693	7.527369	0.131377	27.253512	6.346778	0.000000	0.086648	-0.283794	-1.690177	0.160914	-0.377447	-1.795813	0.142354	-0.690018	-1.795813	0.099030	-0.690018	-1.478905	0.080461	-0.578714	-1.373269	0.049511	-0.439598	-1.267633	0.618917	-3.210339	-9.400256	0.000000	0.000000	21.601258	6.551740	16.972380	8.732640	-12.038410	60.926235	54.362476	61.238090	7.029941	7.807563	1.775304	-13.468299	41.264067	60.924402	82.718576	8.933607	5.753715
1.934783	-2.214841	-3.070705	106.798620	0.091661	1.007890	0.482024	-3.918958	0.152461	1.840724	0.630582	0.011006	22.432121	-9.412662	0.000000	0.263002	2.380073	2.719155	7.693952	0.134285	27.393805	6.930643	0.000000	0.083660	-0.286038	-1.714387	0.155365	-0.380431	-1.821537	0.137445	-0.695473	-1.821537	0.095615	-0.695473	-1.500089	0.077687	-0.583289	-1.392940	0.047803	-0.443073	-1.285791	0.597574	-3.235722	-9.534909	0.000000	0.000000	21.840566	6.526934	16.724633	8.741484	-12.077224	60.834275	54.507960	61.539425	7.087328	7.805973	1.464590	-13.487146	40.813356	61.200558	83.321125	8.865415	5.799150
1.956522	-2.187354	-3.129937	106.940122	0.091482	1.007936	0.482385	-3.849213	0.169092	1.941369	0.635596	0.011093	22.367050	-9.765099	0.000000	0.446605	2.342325	2.332658	7.881094	0.137551	27.529535	7.567969	0.000000	0.082083	-0.285793	-1.747134	0.152436	-0.380105	-1.856330	0.134854	-0.694877	-1.856330	0.093813	-0.694877	-1.528742	0.076222	-0.582789	-1.419546	0.046902	-0.442693	-1.310350	0.586311	-3.232948	-9.717034	0.000000	0.000000	22.027661	6.470101	16.495311	8.747131	-12.090795	60.719696	54.623110	62.305044	7.219427	7.764067	1.136460	-13.486106	40.317885	61.473353	83.880702	8.831348	5.937893
1.978261	-2.136612	-3.169620	107.102124	0.091244	1.007992	0.482725	-3.785951	0.219187	2.020818	0.684517	0.011947	22.271703	-10.166068	0.000000	0.628353	2.268183	1.943040	8.115470	0.141642	27.664831	8.231920	0.000000	0.079780	-0.281430	-1.786130	0.148160	-0.374302	-1.897763	0.131071	-0.684269	-1.897763	0.091181	-0.684269	-1.562864	0.074084	-0.573892	-1.451231	0.045587	-0.435935	-1.339598	0.569863	-3.183594	-9.933920	0.000000	0.000000	22.177507	6.378813	16.284150	8.805171	-12.100770	60.735027	54.701224	63.094857	7.373291	7.698747	0.849859	-13.466868	39.867579	61.703509	84.387222	8.829996	6.082080
2.000000	-2.066978	-3.208224	107.311195	0.090930	1.008036	0.483069	-3.706442	0.289696	1.898459	0.791390	0.013812	22.219037	-10.396123	0.000000	0.822644	2.163373	1.508576	8.383964	0.146328	27.790084	9.031103	0.000000	0.079196	-0.274638	-1.832836	0.147075	-0.365268	-1.947388	0.130111	-0.667754	-1.947388	0.090513	-0.667754	-1.603731	0.073541	-0.560041	-1.489179	0.045253	-0.425414	-1.374627	0.565689	-3.106755	-10.193684	0.000000	0.000000	22.302849	6.267649	16.080105	8.883227	-12.104821	60.796604	54.750857	63.997977	7.560449	7.609082	0.618537	-13.438118	39.514027	61.891473	84.666811	8.861019	6.281045
2.021739	-1.980840	-3.242077	107.566122	0.090553	1.008066	0.483435	-3.623880	0.381371	1.685255	0.933554	0.016294	22.160531	-10.600907	0.000000	1.038056	2.029692	1.026900	8.713530	0.152080	27.923071	9.959617	0.000000	0.078944	-0.265362	-1.886903	0.146606	-0.352932	-2.004835	0.129697	-0.645202	-2.004835	0.090225	-0.645202	-1.651040	0.073307	-0.541127	-1.533109	0.045108	-0.411046	-1.415178	0.563887	-3.001831	-10.494391	0.000000	0.000000	22.418913	6.150260	15.935052	8.949089	-12.109975	60.793885	54.781134	65.217652	7.777168	7.381702	0.408081	-13.379911	39.173311	62.058293	84.655796	9.030763	6.595620
